<svg width="292" height="177" viewBox="0 0 292 177" fill="none" xmlns="http://www.w3.org/2000/svg">
<path d="M241.341 2.88587L240.782 0.961957L240.302 1.10164L240.127 0.5H239.5V0H237.495V0.5H235.491V0H233.487V0.5H231.483V0H229.479V0.5H227.475V0H225.47V0.5H223.466V0H221.462V0.5H219.458V0H217.454V0.5H215.449V0H213.445V0.5H211.441V0H209.437V0.5H207.433V0H205.429V0.5H203.424V0H201.42V0.5H199.416V0H197.412V0.5H195.408V0H193.403V0.5H191.399V0H189.395V0.5H187.391V0H185.387V0.5H183.383V0H181.378V0.5H179.374V0H177.37V0.5H175.366V0H173.362V0.5H171.357V0H169.353V0.5H167.349V0H165.345V0.5H163.341V0H161.337V0.5H159.332V0H157.328V0.5H155.324V0H153.32V0.5H151.316V0H149.311V0.5H147.307V0H145.303V0.5H143.299V0H141.295V0.5H139.291V0H137.286V0.5H135.282V0H133.278V0.5H131.274V0H129.27V0.5H127.265V0H125.261V0.5H123.257V0H121.253V0.5H119.249V0H117.245V0.5H115.24V0H113.236V0.5H111.232V0H109.228V0.5H107.224V0H105.219V0.5H103.215V0H101.211V0.5H99.207V0H97.2028V0.5H95.1986V0H93.1944V0.5H91.1902V0H89.1861V0.5H87.1819V0H85.1777V0.5H83.1735V0H81.1693V0.5H79.1651V0H77.161V0.5H75.1568V0H73.1526V0.5H71.1484V0H69.1442V0.5H67.1401V0H65.1359V0.5H63.1317V0H61.1275V0.5H59.1233V0H57.1192V0.5H55.115V0H53.1108V0.5H51.1066V0H49.1024V0.5H47.0983V0H45.0941V0.5H43.0899V0H41.0857V0.5H39.0815V0H37.0773V0.5H35.0732V0H33.069V0.5H31.0648V0H29.0606V0.5H27.0565V0H25.0523V0.5H23.0481V0H21.0439V0.5H19.0397V0H17.0356V0.5H15.0314V0H13.0272V0.5H11.023V0H9.0188V0.5H7.01462V0H5.01044V0.5H3.00626V0H1.00208V0.5H0.5V1.00569H0V3.01706H0.5V5.02843H0V7.0398H0.5V9.05116H0V11.0625H0.5V13.0739H0V15.0853H0.5V17.0966H0V19.108H0.5V21.1194H0V23.1307H0.5V25.1421H0V27.1535H0.5V29.1648H0V31.1762H0.5V33.1876H0V35.1989H0.5V37.2103H0V39.2217H0.5V41.2331H0V43.2444H0.5V45.2558H0V47.2671H0.5V49.2785H0V51.2899H0.5V53.3012H0V55.3126H0.5V57.324H0V59.3353H0.5V61.3467H0V63.358H0.5V65.3694H0V67.3808H0.5V69.3921H0V71.4035H0.5V73.4148H0V75.4262H0.5V77.4376H0V79.4489H0.5V81.4603H0V83.4716H0.5V85.483H0V87.4944H0.5V89.5057H0V91.5171H0.5V93.5284H0V95.5398H0.5V97.5512H0V99.5625H0.5V101.574H0V103.585H0.5V105.597H0V107.608H0.5V109.619H0V111.631H0.5V113.642H0V115.653H0.5V117.665H0V119.676H0.5V121.687H0V123.699H0.5V125.71H0V127.722H0.5V129.733H0V131.744H0.5V133.756H0V135.767H0.5V137.778H0V139.79H0.5V141.801H0V143.812H0.5V145.824H0V147.835H0.5V149.847H0V151.858H0.5V153.869H0V155.881H0.5V157.892H0V159.903H0.5V161.915H0V163.926H0.5V165.938H0V167.949H0.5V169.96H0V171.972H0.5V173.983H0V175.994H0.5V176.5H1V177H3V176.5H5V177H7V176.5H9V177H11V176.5H13V177H15V176.5H17V177H19V176.5H21V177H23V176.5H25V177H27V176.5H29V177H31V176.5H33V177H35V176.5H37V177H39V176.5H41V177H43V176.5H45V177H47V176.5H49V177H51V176.5H53V177H55V176.5H57V177H59V176.5H61V177H63V176.5H65V177H67V176.5H69V177H71V176.5H73V177H75V176.5H77V177H79V176.5H81V177H83V176.5H85V177H87V176.5H89V177H91V176.5H93V177H95V176.5H97V177H99V176.5H101V177H103V176.5H105V177H107V176.5H109V177H111V176.5H113V177H115V176.5H117V177H119V176.5H121V177H123V176.5H125V177H127V176.5H129V177H131V176.5H133V177H135V176.5H137V177H139V176.5H141V177H143V176.5H145V177H147V176.5H149V177H151V176.5H153V177H155V176.5H157V177H159V176.5H161V177H163V176.5H165V177H167V176.5H169V177H171V176.5H173V177H175V176.5H177V177H179V176.5H181V177H183V176.5H185V177H187V176.5H189V177H191V176.5H193V177H195V176.5H197V177H199V176.5H201V177H203V176.5H205V177H207V176.5H209V177H211V176.5H213V177H215V176.5H217V177H219V176.5H221V177H223V176.5H225V177H227V176.5H229V177H231V176.5H233V177H235V176.5H237V177H239V176.5H241V177H243V176.5H245V177H247V176.5H249V177H251V176.5H253V177H255V176.5H257V177H259V176.5H261V177H263V176.5H265V177H267V176.5H269V177H271V176.5H273V177H275V176.5H277V177H279V176.5H281V177H283V176.5H285V177H287V176.5H289V177H291V176.5H291.334L291.24 176.178L291.72 176.038L291.16 174.114L290.68 174.254L290.121 172.33L290.601 172.19L290.041 170.266L289.561 170.406L289.001 168.482L289.481 168.343L288.921 166.419L288.441 166.558L287.881 164.634L288.362 164.495L287.802 162.571L287.322 162.71L286.762 160.787L287.242 160.647L286.682 158.723L286.202 158.863L285.642 156.939L286.123 156.799L285.563 154.875L285.083 155.015L284.523 153.091L285.003 152.951L284.443 151.027L283.963 151.167L283.403 149.243L283.883 149.103L283.324 147.179L282.844 147.319L282.284 145.395L282.764 145.256L282.204 143.332L281.724 143.471L281.164 141.547L281.644 141.408L281.085 139.484L280.605 139.623L280.045 137.7L280.525 137.56L279.965 135.636L279.485 135.776L278.925 133.852L279.405 133.712L278.846 131.788L278.366 131.928L277.806 130.004L278.286 129.864L277.726 127.94L277.246 128.08L276.686 126.156L277.166 126.016L276.607 124.092L276.126 124.232L275.567 122.308L276.047 122.169L275.487 120.245L275.007 120.384L274.447 118.46L274.927 118.321L274.367 116.397L273.887 116.537L273.328 114.613L273.808 114.473L273.248 112.549L272.768 112.689L272.208 110.765L272.688 110.625L272.128 108.701L271.648 108.841L271.089 106.917L271.569 106.777L271.009 104.853L270.529 104.993L269.969 103.069L270.449 102.929L269.889 101.006L269.409 101.145L268.85 99.2213L269.33 99.0816L268.77 97.1577L268.29 97.2974L267.73 95.3734L268.21 95.2338L267.65 93.3099L267.17 93.4495L266.61 91.5256L267.091 91.3859L266.531 89.462L266.051 89.6017L265.491 87.6778L265.971 87.5381L265.411 85.6142L264.931 85.7539L264.371 83.83L264.852 83.6903L264.292 81.7664L263.812 81.906L263.252 79.9821L263.732 79.8424L263.172 77.9185L262.692 78.0582L262.132 76.1343L262.612 75.9946L262.053 74.0707L261.573 74.2104L261.013 72.2865L261.493 72.1468L260.933 70.2229L260.453 70.3625L259.893 68.4386L260.373 68.299L259.814 66.375L259.334 66.5147L258.774 64.5908L259.254 64.4511L258.694 62.5272L258.214 62.6669L257.654 60.743L258.134 60.6033L257.575 58.6794L257.094 58.8191L256.535 56.8951L257.015 56.7555L256.455 54.8315L255.975 54.9712L255.415 53.0473L255.895 52.9076L255.336 50.9837L254.855 51.1234L254.296 49.1995L254.776 49.0598L254.216 47.1359L253.736 47.2756L253.176 45.3517L253.656 45.212L253.096 43.2881L252.616 43.4277L252.057 41.5038L252.537 41.3641L251.977 39.4402L251.497 39.5799L250.937 37.656L251.417 37.5163L250.857 35.5924L250.377 35.7321L249.818 33.8082L250.298 33.6685L249.738 31.7446L249.258 31.8843L248.698 29.9603L249.178 29.8207L248.618 27.8967L248.138 28.0364L247.579 26.1125L248.059 25.9728L247.499 24.0489L247.019 24.1886L246.459 22.2647L246.939 22.125L246.379 20.2011L245.899 20.3408L245.339 18.4169L245.82 18.2772L245.26 16.3533L244.78 16.4929L244.22 14.569L244.7 14.4293L244.14 12.5054L243.66 12.6451L243.1 10.7212L243.581 10.5815L243.021 8.65761L242.541 8.79729L241.981 6.87338L242.461 6.7337L241.901 4.80978L241.421 4.94947L240.861 3.02555L241.341 2.88587Z" fill="#F1F1F1" stroke="#1B3281" stroke-dasharray="2 2"/>
</svg>
