<svg width="36" height="43" viewBox="0 0 36 43" fill="none" xmlns="http://www.w3.org/2000/svg">
<path d="M30.6861 9.68601L18.986 1.24587C18.4055 0.799299 17.557 0.933269 17.1105 1.55846C16.3959 2.54092 20.9063 -3.7557 1.16797 23.7083L2.19508 24.3334L6.43748 21.2075L17.2891 6.11346C18.2715 6.82797 19.6559 6.60469 20.3258 5.62224L24.1216 8.3463C24.9701 8.21233 25.7739 8.56959 26.3098 9.23944C26.8456 9.95395 26.2204 9.15013 29.5697 13.6158L31.0434 11.5616C31.4453 10.9811 31.3113 10.0879 30.6861 9.68601Z" fill="#F37021"/>
<path d="M23.1383 8.74823C23.0936 8.74823 19.5657 11.4276 8.75878 19.4212L17.5562 7.27455C18.5386 7.58715 19.6104 7.45318 20.4142 6.78333L23.1383 8.74823ZM30.462 16.3399C30.0601 15.8933 29.4795 15.67 28.8543 15.67C28.4078 15.67 28.1845 15.7593 26.8894 16.1613L25.5051 14.2857C24.5226 15.0002 23.1829 14.8216 22.4684 13.8391L14.0283 20.0911L6.12402 22.5025L23.6742 9.46274C24.2547 9.01617 25.1032 9.15014 25.5497 9.73068C26.041 10.4005 23.7188 7.31921 30.462 16.3399ZM33.9006 23.217L33.0521 23.8422C30.8639 16.6971 30.9979 17.0991 30.8639 16.8311L34.1685 21.2968C34.6151 21.922 34.4811 22.7705 33.9006 23.217Z" fill="#F37021"/>
<path d="M25.9966 16.4738L16.5293 19.3318L22.3347 15.0001C23.1386 15.6253 24.255 15.8039 25.1928 15.4467L25.9966 16.4738ZM32.4718 25.0926L30.0157 26.5216C29.8371 25.9857 30.0604 26.6109 28.542 21.7433C27.381 22.1006 26.1752 21.4307 25.818 20.3143L5.76705 26.4769L2.55176 24.5567L28.4527 16.6524C29.1672 16.4291 29.9264 16.8311 30.1497 17.5456C30.1497 17.5902 32.4272 24.9586 32.4718 25.0926Z" fill="#F37021"/>
<path d="M27.9173 22.7705C26.8902 22.7705 25.9078 22.2793 25.3272 21.4308L6.75 27.0575L17.9589 33.7561L29.3464 26.9682L27.9173 22.7705ZM17.289 31.7019C15.7707 31.7019 14.5649 30.4961 14.5649 28.9778C14.5649 27.4595 15.7707 26.2537 17.289 26.2537C18.8073 26.2537 20.0131 27.4595 20.0131 28.9778C20.0131 30.4961 18.8073 31.7019 17.289 31.7019ZM24.1215 27.3701C23.5856 27.5488 23.0497 27.7274 22.5139 27.8167C22.2459 27.8614 22.0226 27.6827 21.978 27.4595C21.9333 27.2362 22.112 26.9682 22.3352 26.9236L23.8089 26.477C24.0322 26.3877 24.3001 26.5663 24.3894 26.7896C24.5234 27.0575 24.3894 27.2808 24.1215 27.3701ZM17.3783 27.1469C16.3512 27.1469 15.5474 27.9507 15.5027 28.9778C15.5027 30.0049 16.3066 30.8534 17.3337 30.8534C18.5841 30.898 19.4772 29.6923 19.1199 28.4866C18.852 27.6827 18.1821 27.1469 17.3783 27.1469Z" fill="#F37021"/>
<path d="M17.9144 30.7641C16.7533 31.166 15.5029 30.2728 15.5029 28.9778C15.5029 27.9507 16.3514 27.1469 17.3785 27.1469C18.1823 27.1469 18.8968 27.6827 19.1201 28.4419C19.3881 29.4243 18.8522 30.4515 17.9144 30.7641Z" fill="#F37021"/>
<path d="M17.9143 30.7641C16.7532 31.166 15.5028 30.2728 15.5028 28.9778C15.5028 27.9507 16.3513 27.1469 17.3784 27.1469C18.1822 27.1469 18.8968 27.6827 19.12 28.4419C19.388 29.4244 18.8521 30.4515 17.9143 30.7641ZM0.185547 24.1548L11.1711 30.7194L0.27486 41.6603C0.185547 41.3031 0.185547 42.6874 0.185547 24.1548ZM35.7324 24.1548C35.7324 42.6428 35.777 41.2584 35.6431 41.6603L24.7468 30.7641L35.7324 24.1548ZM35.1518 42.4641C34.7946 42.8214 34.3034 43 33.8121 43H2.10579C1.61457 43 1.12334 42.7767 0.766086 42.4641L11.9749 31.2553L17.959 34.8278L23.943 31.2553L35.1518 42.4641Z" fill="#F37021"/>
</svg>
