<svg width="41" height="41" viewBox="0 0 41 41" fill="none" xmlns="http://www.w3.org/2000/svg">
<path d="M2.92365 26.3476L14.6526 38.0765C15.6492 39.0731 17.2649 39.0731 18.2615 38.0765L20.5435 35.7945L5.20565 20.4567L2.92365 22.7387C1.92707 23.7352 1.92707 25.351 2.92365 26.3476ZM0.747433 33.9372L7.06299 40.2528C8.05957 41.2493 9.67531 41.2493 10.6719 40.2528L12.0516 38.873L2.12719 28.9485L0.747433 30.3283C-0.249144 31.3249 -0.249144 32.9406 0.747433 33.9372ZM22.7387 2.92365L20.4567 5.20565L35.7945 20.5435L38.0765 18.2615C39.0731 17.2649 39.0731 15.6492 38.0765 14.6526L26.3476 2.92365C25.351 1.92707 23.7352 1.92707 22.7387 2.92365ZM30.3283 0.747433L28.9485 2.12719L38.873 12.0516L40.2528 10.6719C41.2493 9.67531 41.2493 8.05957 40.2528 7.06299L33.9372 0.747433C32.9406 -0.249144 31.3249 -0.249144 30.3283 0.747433ZM12.3145 24.1707L24.1663 12.3191L28.6768 16.8295L16.8251 28.6812L12.3145 24.1707Z" fill="#F37021"/>
</svg>
