<svg width="41" height="42" viewBox="0 0 41 42" fill="none" xmlns="http://www.w3.org/2000/svg">
<path d="M39.5356 32.3393V27.9464C39.5356 27.5581 39.3813 27.1856 39.1067 26.911C38.8321 26.6364 38.4596 26.4821 38.0713 26.4821H35.1427C34.7544 26.4821 34.3819 26.6364 34.1073 26.911C33.8327 27.1856 33.6784 27.5581 33.6784 27.9464V32.3393H21.9641V27.9464C21.9641 27.5581 21.8099 27.1856 21.5353 26.911C21.2607 26.6364 20.8882 26.4821 20.4999 26.4821H17.5713C17.1829 26.4821 16.8105 26.6364 16.5359 26.911C16.2613 27.1856 16.107 27.5581 16.107 27.9464V32.3393C15.7187 32.3393 15.3462 32.4936 15.0716 32.7682C14.797 33.0428 14.6427 33.4152 14.6427 33.8036C14.6427 34.1919 14.797 34.5644 15.0716 34.839C15.3462 35.1136 15.7187 35.2679 16.107 35.2679V39.6607C16.107 40.0491 16.2613 40.4215 16.5359 40.6961C16.8105 40.9707 17.1829 41.125 17.5713 41.125H20.4999C20.8882 41.125 21.2607 40.9707 21.5353 40.6961C21.8099 40.4215 21.9641 40.0491 21.9641 39.6607V35.2679H33.6784V39.6607C33.6784 40.0491 33.8327 40.4215 34.1073 40.6961C34.3819 40.9707 34.7544 41.125 35.1427 41.125H38.0713C38.4596 41.125 38.8321 40.9707 39.1067 40.6961C39.3813 40.4215 39.5356 40.0491 39.5356 39.6607V35.2679C39.9239 35.2679 40.2964 35.1136 40.571 34.839C40.8456 34.5644 40.9999 34.1919 40.9999 33.8036C40.9999 33.4152 40.8456 33.0428 40.571 32.7682C40.2964 32.4936 39.9239 32.3393 39.5356 32.3393ZM10.2499 5.98214H19.0356C19.8123 5.98214 20.5572 5.6736 21.1064 5.12438C21.6556 4.57517 21.9641 3.83028 21.9641 3.05357V1.58929C21.9641 1.20093 21.8099 0.828486 21.5353 0.553879C21.2607 0.279272 20.8882 0.125 20.4999 0.125H8.78557C8.39722 0.125 8.02478 0.279272 7.75017 0.553879C7.47556 0.828486 7.32129 1.20093 7.32129 1.58929V3.05357C7.32129 3.83028 7.62983 4.57517 8.17905 5.12438C8.72826 5.6736 9.47316 5.98214 10.2499 5.98214Z" fill="#F37021"/>
<path d="M24.8929 39.6607C24.8889 40.1603 24.7998 40.6555 24.6293 41.125H26.3571C27.1338 41.125 27.8787 40.8165 28.428 40.2673C28.9772 39.718 29.2857 38.9731 29.2857 38.1964H24.8929V39.6607ZM13.1786 27.9464C13.1786 26.7814 13.6414 25.664 14.4652 24.8402C15.289 24.0164 16.4064 23.5536 17.5714 23.5536H20.5C21.6651 23.5536 22.7824 24.0164 23.6062 24.8402C24.43 25.664 24.8929 26.7814 24.8929 27.9464V29.4107H29.2857V4.51787C29.2857 3.74116 28.9772 2.99627 28.428 2.44705C27.8787 1.89784 27.1338 1.58929 26.3571 1.58929H24.8929V3.05358C24.8929 4.60699 24.2758 6.09678 23.1773 7.19521C22.0789 8.29363 20.5891 8.91072 19.0357 8.91072H10.25C8.69659 8.91072 7.2068 8.29363 6.10837 7.19521C5.00995 6.09678 4.39286 4.60699 4.39286 3.05358V1.58929H2.92857C2.15187 1.58929 1.40697 1.89784 0.857759 2.44705C0.308545 2.99627 0 3.74116 0 4.51787V38.1964C0 38.9731 0.308545 39.718 0.857759 40.2673C1.40697 40.8165 2.15187 41.125 2.92857 41.125H13.4421C13.2717 40.6555 13.1825 40.1603 13.1786 39.6607V37.0543C12.7256 36.6426 12.3637 36.1407 12.116 35.5809C11.8683 35.0211 11.7404 34.4157 11.7404 33.8036C11.7404 33.1914 11.8683 32.5861 12.116 32.0263C12.3637 31.4665 12.7256 30.9646 13.1786 30.5529V27.9464ZM7.32143 33.8036C7.03182 33.8036 6.74872 33.7177 6.50792 33.5568C6.26711 33.3959 6.07943 33.1672 5.9686 32.8997C5.85778 32.6321 5.82878 32.3377 5.88528 32.0536C5.94178 31.7696 6.08124 31.5087 6.28602 31.3039C6.49081 31.0991 6.75172 30.9596 7.03576 30.9031C7.3198 30.8466 7.61422 30.8756 7.88179 30.9865C8.14935 31.0973 8.37804 31.285 8.53894 31.5258C8.69984 31.7666 8.78571 32.0497 8.78571 32.3393C8.78571 32.7277 8.63144 33.1001 8.35683 33.3747C8.08223 33.6493 7.70978 33.8036 7.32143 33.8036ZM7.32143 27.9464C6.93308 27.9464 6.56063 27.7922 6.28602 27.5176C6.01142 27.243 5.85714 26.8705 5.85714 26.4822C5.85714 26.0938 6.01142 25.7214 6.28602 25.4467C6.56063 25.1721 6.93308 25.0179 7.32143 25.0179C7.70978 25.0179 8.08223 25.1721 8.35683 25.4467C8.63144 25.7214 8.78571 26.0938 8.78571 26.4822C8.78571 26.8705 8.63144 27.243 8.35683 27.5176C8.08223 27.7922 7.70978 27.9464 7.32143 27.9464ZM7.32143 22.0893C6.93308 22.0893 6.56063 21.935 6.28602 21.6604C6.01142 21.3858 5.85714 21.0134 5.85714 20.625C5.85714 20.2367 6.01142 19.8642 6.28602 19.5896C6.56063 19.315 6.93308 19.1607 7.32143 19.1607C7.70978 19.1607 8.08223 19.315 8.35683 19.5896C8.63144 19.8642 8.78571 20.2367 8.78571 20.625C8.78571 21.0134 8.63144 21.3858 8.35683 21.6604C8.08223 21.935 7.70978 22.0893 7.32143 22.0893ZM7.32143 16.2322C6.93308 16.2322 6.56063 16.0779 6.28602 15.8033C6.01142 15.5287 5.85714 15.1562 5.85714 14.7679C5.85714 14.3795 6.01142 14.0071 6.28602 13.7325C6.56063 13.4579 6.93308 13.3036 7.32143 13.3036C7.70978 13.3036 8.08223 13.4579 8.35683 13.7325C8.63144 14.0071 8.78571 14.3795 8.78571 14.7679C8.78571 15.1562 8.63144 15.5287 8.35683 15.8033C8.08223 16.0779 7.70978 16.2322 7.32143 16.2322ZM13.1786 13.3036H20.5C20.8884 13.3036 21.2608 13.4579 21.5354 13.7325C21.81 14.0071 21.9643 14.3795 21.9643 14.7679C21.9643 15.1562 21.81 15.5287 21.5354 15.8033C21.2608 16.0779 20.8884 16.2322 20.5 16.2322H13.1786C12.7902 16.2322 12.4178 16.0779 12.1432 15.8033C11.8686 15.5287 11.7143 15.1562 11.7143 14.7679C11.7143 14.3795 11.8686 14.0071 12.1432 13.7325C12.4178 13.4579 12.7902 13.3036 13.1786 13.3036ZM11.7143 20.625C11.7143 20.2367 11.8686 19.8642 12.1432 19.5896C12.4178 19.315 12.7902 19.1607 13.1786 19.1607H20.5C20.8884 19.1607 21.2608 19.315 21.5354 19.5896C21.81 19.8642 21.9643 20.2367 21.9643 20.625C21.9643 21.0134 21.81 21.3858 21.5354 21.6604C21.2608 21.935 20.8884 22.0893 20.5 22.0893H13.1786C12.7902 22.0893 12.4178 21.935 12.1432 21.6604C11.8686 21.3858 11.7143 21.0134 11.7143 20.625Z" fill="#F37021"/>
</svg>
