<svg width="33" height="43" viewBox="0 0 33 43" fill="none" xmlns="http://www.w3.org/2000/svg">
<path d="M11.6408 37.4052V39.137C11.6408 42.1703 12.7525 43 16.8196 43H23.279C27.3466 43 28.4612 42.1703 28.4612 39.137V37.4052H11.6408ZM10.8221 1.06898C10.0594 1.39201 9.62076 2.10885 9.62076 2.82072L9.61523 22.7043C9.61523 23.2259 8.81486 23.6037 8.4227 22.9416L6.40878 18.5531C5.57578 17.0929 4.59399 16.183 3.51043 15.8888C2.62654 15.6498 1.66079 15.8196 1.08167 16.2372C0.502555 16.6548 0.972708 17.3866 1.31509 17.9198C1.51366 18.2312 1.73325 18.5708 1.9545 18.9459C2.96339 20.9155 3.35777 22.5694 3.73831 24.169C4.29475 26.4844 4.7721 28.4872 6.9879 30.843L7.33913 31.2119C9.55825 33.5167 11.0384 35.0953 11.4909 36.19H28.4905C28.6199 34.4476 29.3805 33.4824 30.1294 32.5549C31.0973 31.3535 32.1002 30.1117 32.1002 26.8018V6.24067C32.1002 5.65547 31.7058 5.09958 31.0719 4.79094C30.3954 4.4657 29.891 4.4657 29.214 4.79094C28.5806 5.09958 28.1857 5.65547 28.1857 6.24067L28.1802 14.0596C28.1802 14.4191 27.8865 14.6039 27.5524 14.6039C27.423 14.6039 26.9583 14.4744 26.9301 14.0596C26.8804 13.345 26.4688 12.6735 25.7254 12.3079C25.3321 12.117 24.9006 12.0179 24.4635 12.0179C24.0263 12.0179 23.5949 12.117 23.2015 12.3079C22.4581 12.6735 21.9968 13.345 21.9968 14.0596C21.9968 14.3937 21.7181 14.6675 21.3724 14.6675C21.0267 14.6675 20.7435 14.3937 20.7435 14.0596C20.7435 13.345 20.2855 12.6735 19.5421 12.3079C19.1488 12.117 18.7173 12.0179 18.2801 12.0179C17.843 12.0179 17.4115 12.117 17.0182 12.3079C16.2748 12.6735 15.8146 13.345 15.8146 14.0596C15.8146 14.3937 15.5347 14.6675 15.189 14.6675C15.1857 14.6675 15.1835 14.6647 15.1835 14.6647C15.1802 14.6647 15.1802 14.6675 15.1769 14.6675C14.8312 14.6675 14.5524 14.3937 14.5524 14.0596V2.82072C14.5524 2.10885 14.0966 1.42409 13.3477 1.06622C12.4793 0.651377 11.6153 0.734899 10.8221 1.06898Z" fill="#F37021"/>
</svg>
