<svg width="74" height="74" viewBox="0 0 74 74" fill="none" xmlns="http://www.w3.org/2000/svg">
<circle cx="37" cy="37" r="36.5" transform="matrix(-1 0 0 1 74 0)" stroke="white"/>
<path d="M30.9393 38.0607C30.3536 37.4749 30.3536 36.5251 30.9393 35.9393L40.4853 26.3934C41.0711 25.8076 42.0208 25.8076 42.6066 26.3934C43.1924 26.9792 43.1924 27.9289 42.6066 28.5147L34.1213 37L42.6066 45.4853C43.1924 46.0711 43.1924 47.0208 42.6066 47.6066C42.0208 48.1924 41.0711 48.1924 40.4853 47.6066L30.9393 38.0607ZM33 38.5L32 38.5L32 35.5L33 35.5L33 38.5Z" fill="white"/>
</svg>
