<svg width="17" height="18" viewBox="0 0 17 18" fill="none" xmlns="http://www.w3.org/2000/svg">
<path d="M3.43633 18C2.55584 18.0001 1.67563 17.665 1.00534 16.9947C-0.335096 15.6542 -0.335131 13.4731 1.00534 12.1327L10.0851 3.05286C10.9583 2.17965 12.3791 2.17965 13.2522 3.05286C14.1254 3.92607 14.1254 5.34684 13.2522 6.21998L5.74627 13.7259C5.54032 13.9319 5.20637 13.9319 5.00043 13.7259C4.79448 13.52 4.79448 13.1861 5.00043 12.9801L12.5064 5.47414C12.7302 5.25037 12.8534 4.95288 12.8534 4.63644C12.8534 4.32 12.7302 4.02251 12.5064 3.79874C12.2826 3.57497 11.9851 3.45171 11.6687 3.45171C11.3522 3.45171 11.0548 3.57493 10.831 3.7987L1.75118 12.8785C0.822001 13.8077 0.822001 15.3196 1.75118 16.2488C2.68036 17.178 4.19229 17.178 5.12151 16.2488L14.2013 7.16906C15.5977 5.77259 15.5977 3.50033 14.2013 2.10386C13.5248 1.42738 12.6254 1.05479 11.6687 1.05479C10.7119 1.05479 9.81251 1.42738 9.13603 2.10386L1.6301 9.60979C1.42416 9.81573 1.09021 9.81573 0.884263 9.60979C0.678318 9.40384 0.678318 9.06989 0.884263 8.86395L8.39023 1.35798C9.2659 0.482273 10.4302 0 11.6687 0C12.9071 0 14.0714 0.482273 14.9471 1.35798C16.7548 3.16571 16.7548 6.1071 14.9471 7.91487L5.86734 16.9947C5.19716 17.6648 4.3166 17.9999 3.43633 18Z" fill="#F37021"/>
</svg>
