<svg width="37" height="37" viewBox="0 0 37 37" fill="none" xmlns="http://www.w3.org/2000/svg">
<circle cx="18.5" cy="18.5" r="18.5" fill="#1B3281"/>
<path fill-rule="evenodd" clip-rule="evenodd" d="M26.2483 25.4111C26.1414 25.5176 26.0126 25.6538 25.876 25.7978C25.5352 26.1595 25.1094 26.6092 24.8425 26.7916C23.4384 27.7511 21.5598 27.292 20.2311 26.7383C18.4782 26.0079 16.5698 24.6617 14.8562 22.948C13.1411 21.2341 11.795 19.3251 11.0646 17.5732C10.5116 16.2441 10.0516 14.3652 11.0112 12.9608C11.1935 12.6937 11.6442 12.2686 12.0054 11.9271C12.15 11.7909 12.2851 11.6622 12.3919 11.5557C12.5816 11.367 12.8382 11.2611 13.1058 11.2611C13.3733 11.2611 13.63 11.367 13.8197 11.5557L16.4032 14.1386C16.5919 14.3282 16.6977 14.5848 16.6977 14.8523C16.6977 15.1198 16.5919 15.3764 16.4032 15.566L15.6994 16.2684C15.4644 16.5017 15.311 16.8047 15.262 17.1323C15.213 17.4598 15.2712 17.7944 15.4277 18.0863C16.3957 19.9134 17.8902 21.4076 19.7174 22.3753C20.0092 22.5318 20.3438 22.5898 20.6712 22.5408C20.9987 22.4917 21.3016 22.3382 21.5347 22.1031L22.2368 21.4007C22.4264 21.212 22.6831 21.106 22.9507 21.106C23.2182 21.106 23.4749 21.212 23.6645 21.4007L26.2483 23.984C26.4369 24.1736 26.5428 24.4301 26.5428 24.6975C26.5428 24.965 26.4369 25.2215 26.2483 25.4111Z" fill="#F37021"/>
</svg>
