<svg width="37" height="37" viewBox="0 0 37 37" fill="none" xmlns="http://www.w3.org/2000/svg">
<circle cx="18.5" cy="18.5" r="18.5" fill="#1B3281"/>
<path d="M26.8503 13.3775L21.6945 18.5L26.8503 23.6225C26.9435 23.4277 27 23.2124 27 22.9824V14.0176C27 13.7876 26.9435 13.5723 26.8503 13.3775ZM25.5059 12.5234H11.4941C11.2641 12.5234 11.0488 12.58 10.854 12.6732L17.4436 19.2296C18.0263 19.8122 18.9737 19.8122 19.5564 19.2296L26.146 12.6732C25.9512 12.58 25.7359 12.5234 25.5059 12.5234ZM10.1497 13.3775C10.0565 13.5723 10 13.7876 10 14.0176V22.9824C10 23.2124 10.0565 23.4278 10.1497 23.6225L15.3055 18.5L10.1497 13.3775Z" fill="#F37021"/>
<path d="M20.9897 19.2043L20.2602 19.9338C19.2893 20.9047 17.7096 20.9047 16.7388 19.9338L16.0093 19.2043L10.8535 24.3268C11.0483 24.42 11.2636 24.4766 11.4936 24.4766H25.5054C25.7354 24.4766 25.9507 24.42 26.1455 24.3268L20.9897 19.2043Z" fill="#F37021"/>
</svg>
