<svg width="27" height="27" viewBox="0 0 27 27" fill="none" xmlns="http://www.w3.org/2000/svg">
<path d="M24.0469 6.69727V25.6816C24.0469 26.0313 23.908 26.3666 23.6607 26.6139C23.4135 26.8611 23.0782 27 22.7285 27H4.27148C3.92183 27 3.5865 26.8611 3.33926 26.6139C3.09202 26.3666 2.95312 26.0313 2.95312 25.6816V1.31836C2.95312 0.968709 3.09202 0.633379 3.33926 0.386139C3.5865 0.138898 3.92183 0 4.27148 0L17.3496 0L24.0469 6.69727Z" fill="#F37021"/>
<path d="M25.6816 12.6562H1.31836C0.59025 12.6562 0 13.2465 0 13.9746V21.8848C0 22.6129 0.59025 23.2031 1.31836 23.2031H25.6816C26.4097 23.2031 27 22.6129 27 21.8848V13.9746C27 13.2465 26.4097 12.6562 25.6816 12.6562Z" fill="#1B3281"/>
<path d="M24.0467 6.69516H17.3516V0L24.0467 6.69516Z" fill="#D8EFFF"/>
<path d="M6.74512 21.5605V14.299H9.18355C9.61949 14.299 9.97791 14.3812 10.2588 14.5457C10.5403 14.7104 10.7608 14.9621 10.8869 15.2629C11.024 15.5769 11.0927 15.9578 11.0931 16.4057C11.0931 16.9682 11.0003 17.3971 10.8146 17.6924C10.642 17.9778 10.3759 18.1947 10.0616 18.3062C9.71862 18.424 9.35788 18.4816 8.99529 18.4766H8.3493V21.5605H6.74512ZM8.3493 17.356H8.88771C9.08494 17.356 9.23435 17.3208 9.33596 17.2505C9.44154 17.1723 9.51353 17.057 9.5374 16.9278C9.57357 16.7478 9.59002 16.5644 9.58644 16.3809C9.58836 16.2172 9.57495 16.0537 9.54637 15.8926C9.52457 15.761 9.45627 15.6416 9.35389 15.5561C9.25193 15.4725 9.09373 15.4306 8.87928 15.4306H8.35193L8.3493 17.356ZM11.8651 21.5605V14.299H13.7029C14.3357 14.299 14.8288 14.3782 15.1821 14.5368C15.5176 14.6782 15.7844 14.9453 15.9256 15.2809C16.0691 15.6184 16.1408 16.0561 16.1408 16.594V19.2307C16.1408 19.7745 16.0691 20.2184 15.9256 20.5622C15.787 20.9008 15.5223 21.1723 15.1874 21.3195C14.8379 21.4808 14.3494 21.5615 13.7219 21.5615L11.8651 21.5605ZM13.4698 20.4488H13.7208C13.9669 20.4488 14.1427 20.4137 14.2482 20.3434C14.3022 20.3064 14.348 20.2586 14.3826 20.2031C14.4173 20.1475 14.4401 20.0854 14.4496 20.0206C14.4793 19.8429 14.4929 19.6629 14.4902 19.4827V16.3187C14.4942 16.144 14.4775 15.9695 14.4406 15.7987C14.4281 15.7386 14.4027 15.6819 14.3663 15.6324C14.3299 15.5829 14.2833 15.5418 14.2297 15.5118C14.1221 15.4524 13.9488 15.4225 13.7097 15.4222H13.4677L13.4698 20.4488ZM17.1169 21.5605V14.299H20.2546V15.3837H18.7206V17.2125H20.0563V18.3331H18.7206V21.5605H17.1169Z" fill="#D8EFFF"/>
</svg>
