<svg width="27" height="15" viewBox="0 0 27 15" fill="none" xmlns="http://www.w3.org/2000/svg">
<path d="M0.20158 6.97239C0.442575 6.70355 6.2394 0.380859 13.5 0.380859C20.7606 0.380859 26.5573 6.70355 26.7984 6.97239C26.9282 7.11746 27 7.30531 27 7.5C27 7.69469 26.9282 7.88254 26.7984 8.02761C26.5573 8.29645 20.7604 14.6191 13.5 14.6191C6.23951 14.6191 0.442629 8.29645 0.20158 8.02761C0.0717621 7.88253 -9.53674e-06 7.69468 -9.53674e-06 7.5C-9.53674e-06 7.30532 0.0717621 7.11747 0.20158 6.97239ZM13.5 13.0371C16.5528 13.0371 19.0371 10.5528 19.0371 7.5C19.0371 4.44715 16.5528 1.96289 13.5 1.96289C10.4471 1.96289 7.96287 4.44715 7.96287 7.5C7.96287 10.5528 10.4471 13.0371 13.5 13.0371Z" fill="#60BCEA"/>
<path d="M12.709 5.91797C12.709 5.12221 12.314 4.42216 11.713 3.99158C12.2523 3.71552 12.8537 3.54492 13.5 3.54492C15.6807 3.54492 17.4551 5.31928 17.4551 7.5C17.4551 9.68072 15.6807 11.4551 13.5 11.4551C11.5476 11.4551 9.93157 10.0295 9.61232 8.16667C11.2052 8.67951 12.709 7.47479 12.709 5.91797Z" fill="#60BCEA"/>
</svg>
