<svg width="174" height="83" viewBox="0 0 174 83" fill="none" xmlns="http://www.w3.org/2000/svg">
<path d="M165.921 39.8406C170.294 39.8406 173.841 36.294 173.841 31.9204C173.841 27.5466 170.294 24 165.921 24C161.546 24 158 27.5466 158 31.9204C158 36.294 161.546 39.8406 165.921 39.8406Z" fill="#6F8FAC"/>
<path d="M15.3565 35.6376L16.3475 30.6793L7.00914 30.6619C32.1843 14.8639 62.3506 6.41541 87.7881 6.41541C113.202 6.41541 136.523 14.0464 155.037 27.4008C155.896 25.9278 157.076 24.6642 158.479 23.7052C139.466 8.59498 116.3 0 89.044 0C61.7252 0 27.4125 9.98555 1.14217 29.9264L0 35.6376H15.3565Z" fill="#6F8FAC"/>
<path d="M140.194 35.6379H137.439C134.632 35.6379 131.959 35.6208 129.767 37.6079C126.74 40.3506 125.53 44.2522 125.53 48.2428C125.53 50.0176 125.858 51.9791 126.936 53.2855C128.405 55.0703 130.687 55.4102 132.879 55.4102H147.8L146.808 60.3741H132.728C129.265 60.3741 125.501 60.3076 122.663 58.0559C119.812 55.7932 118.648 52.008 118.648 48.0561C118.648 42.5672 120.723 37.1126 125.105 33.6387C128.427 31.0034 132.412 30.6798 136.474 30.6798H147.129L144.844 42.1087H138.9L140.194 35.6379ZM95.5847 55.4102H100.582C102.553 55.4102 104.876 55.4536 106.458 54.5068C107.421 53.9308 108.15 52.7933 108.319 51.2491C108.59 48.7771 106.748 47.5543 104.005 47.5543H97.1559L95.5847 55.4102ZM111.003 44.74C113.779 45.4735 115.481 47.8394 115.326 50.7942C114.925 58.4351 108.832 60.3741 102.29 60.3741H88.0147L92.9599 35.6379H87.3422L88.3336 30.6798H105.672C108.365 30.6798 111.86 30.7635 113.993 32.5531C115.571 33.8793 116.286 35.7121 116.154 37.6967C115.967 40.4775 114.347 43.2202 111.003 44.4654V44.74ZM98.2439 42.1087H102.134C103.519 42.1087 105.268 42.1142 106.696 41.6485C108.059 41.2038 109.169 40.1369 109.354 38.4159C109.433 37.6849 109.333 36.9259 108.759 36.4063C107.917 35.645 106.221 35.6379 105.137 35.6379H99.5387L98.2439 42.1087ZM66.5121 30.6798L62.9453 48.5155H63.3287L78.9521 30.6798H85.2534L79.3145 60.3741H72.7366L76.3324 42.3912H75.9529L60.2963 60.3741H53.9954L58.9418 35.6379H53.3243L54.3164 30.6798H66.5121ZM28.7941 35.6379H23.1773L24.1938 30.6787L50.6294 30.6798L45.684 55.4102H49.2952L47.38 65.3366H41.4361L42.3573 60.3748L22.4076 60.368L21.4842 65.3366H15.5396L17.4558 55.4102H18.9676C21.5591 54.5991 23.2849 52.3903 24.5593 48.5155L28.7941 35.6379ZM43.0326 35.6379H35.0266L31.3515 47.3461C30.4123 50.3358 29.1839 53.5132 27.1808 55.4102H39.1043L43.0326 35.6379Z" fill="white"/>
<path d="M54.4588 21.2287C65.0708 18.8887 75.1913 17.7789 84.7364 17.7904C100.771 17.8095 115.175 20.992 127.545 26.8115L126.98 28.0189C114.783 22.2803 100.569 19.1414 84.7364 19.1228C69.7175 19.1043 53.2368 21.8954 35.6327 27.9374L35.4153 27.3055L35.165 26.6858C56.5385 17.9882 74.8595 13.836 92.8489 13.9194C107.757 13.9889 122.419 16.9671 138.382 22.6792C122.147 14.8097 105.292 10.8386 87.6149 10.804C66.4492 10.7627 44.0886 16.3617 20.1888 27.6641L19.6201 26.4573C43.698 15.0712 66.2468 9.43021 87.6149 9.47191C109.004 9.51326 129.196 15.2469 148.539 26.6081L148.201 27.1829L147.948 27.7994C128.114 19.6193 110.644 15.3342 92.8439 15.2512C80.5192 15.1945 68.0226 17.1536 54.4588 21.2287Z" fill="#6F8FAC"/>
<path d="M15.1034 78.0645L14.1558 83.0003H146.55L147.497 78.0645H15.1034Z" fill="#6F8FAC"/>
<path d="M53.4081 64.2981H53.4105L53.4515 64.0811H147.475L147.275 65.12L147.232 65.337H53.2085L53.4081 64.2981Z" fill="#6F8FAC"/>
<path d="M145.395 70.9362L145.742 72.862H144.32L145.395 70.9362ZM146.063 74.7192H147.154L146.111 69.6611H145.129L142.125 74.7192H143.276L143.839 73.7292H145.892L146.063 74.7192ZM143.2 69.6611H139.314L139.133 70.5716H140.573L139.745 74.7192H140.787L141.615 70.5716H143.019L143.2 69.6611ZM136.547 72.1752H135.718L136.033 70.6005H136.886C137.279 70.6005 137.505 70.8244 137.505 71.1753C137.505 71.7095 137.081 72.1752 136.547 72.1752ZM137.059 69.6611H135.18L134.168 74.7192H135.21L135.531 73.1147H136.469C137.619 73.1147 138.552 72.2398 138.552 71.1225C138.552 70.2954 137.952 69.6611 137.059 69.6611ZM130.643 73.8441C129.809 73.8441 129.259 73.3004 129.259 72.5128C129.259 71.4965 130.089 70.5349 131.212 70.5349C132.039 70.5349 132.59 71.067 132.59 71.857C132.59 72.8837 131.774 73.8441 130.643 73.8441ZM130.509 74.8275C132.252 74.8275 133.645 73.5174 133.645 71.7811C133.645 70.5035 132.719 69.5527 131.351 69.5527C129.606 69.5527 128.204 70.8628 128.204 72.5931C128.204 73.8709 129.134 74.8275 130.509 74.8275ZM123.773 69.6611L122.761 74.7192H123.803L124.629 70.6005H126.453L125.627 74.7192H126.671L127.683 69.6611H123.773ZM119.371 74.8186C120.643 74.8186 121.71 74.1251 122.184 72.7604H121.126C120.821 73.4172 120.217 73.8243 119.505 73.8243C118.723 73.8243 118.237 73.3296 118.237 72.5802C118.237 71.5271 119.102 70.5553 120.159 70.5553C120.824 70.5553 121.253 70.9337 121.353 71.5463H122.395C122.357 70.3931 121.478 69.5609 120.277 69.5609C118.563 69.5609 117.182 70.9313 117.182 72.6521C117.182 73.8901 118.063 74.8186 119.371 74.8186ZM111.671 73.7943H110.653L110.905 72.5366H111.916C112.25 72.5366 112.442 72.7474 112.442 73.0402C112.442 73.4625 112.105 73.7943 111.671 73.7943ZM112.028 71.7071H111.072L111.309 70.527H112.25C112.558 70.527 112.739 70.716 112.745 70.9961C112.745 71.4005 112.429 71.7071 112.028 71.7071ZM113.005 72.0719C113.477 71.7983 113.808 71.3296 113.808 70.7876C113.808 70.1571 113.291 69.6611 112.518 69.6611H110.468L109.456 74.7192H111.622C112.597 74.7192 113.486 74.0082 113.486 73.0196C113.486 72.615 113.323 72.2654 113.005 72.0719ZM105.933 73.8441C105.099 73.8441 104.55 73.3004 104.55 72.5128C104.55 71.4965 105.38 70.5349 106.502 70.5349C107.33 70.5349 107.88 71.067 107.88 71.857C107.88 72.8837 107.065 73.8441 105.933 73.8441ZM105.797 74.8275C107.542 74.8275 108.935 73.5174 108.935 71.7811C108.935 70.5035 108.009 69.5527 106.641 69.5527C104.897 69.5527 103.494 70.8628 103.494 72.5931C103.494 73.8709 104.424 74.8275 105.797 74.8275ZM100.26 70.5924H101.628L100.99 73.7804H99.0934C99.4839 73.3406 99.7584 72.5128 100.26 70.5924ZM102.857 69.6611H99.5114C98.6155 72.8329 98.4169 73.4458 97.912 73.7804H97.5152L97.1489 75.6186H98.1079L98.2875 74.7176H101.374L101.195 75.6186H102.155L102.521 73.7804H102.033L102.857 69.6611ZM96.6137 69.6611L93.634 72.7031L94.2452 69.6611H93.2028L92.1919 74.7192H92.9149L95.9358 71.6393L95.3161 74.7192H96.3579L97.37 69.6611H96.6137ZM89.5831 73.7943H88.5649L88.8163 72.5366H89.8284C90.1619 72.5366 90.3547 72.7474 90.3547 73.0402C90.3547 73.4625 90.0172 73.7943 89.5831 73.7943ZM89.9398 71.7071H88.9833L89.2197 70.527H90.1619C90.4702 70.527 90.6525 70.716 90.6562 70.9961C90.6562 71.4005 90.3411 71.7071 89.9398 71.7071ZM90.9175 72.0719C91.3893 71.7983 91.7204 71.3296 91.7204 70.7876C91.7204 70.1571 91.2022 69.6611 90.4287 69.6611H88.3789L87.3675 74.7192H89.5347C90.5104 74.7192 91.3971 74.0082 91.3971 73.0196C91.3971 72.615 91.2343 72.2654 90.9175 72.0719ZM84.7379 69.6611H83.5173L82.269 71.2469L81.6532 69.6611H80.5303L81.5326 72.0644L79.4147 74.7192H80.6571L82.0477 72.9557L82.7248 74.7192H83.8541L82.7861 72.104L84.7379 69.6611ZM75.3447 73.7725H74.5036L74.8239 72.1679H75.649C76.0727 72.1679 76.3422 72.4166 76.3422 72.804C76.3422 73.3246 75.9031 73.7725 75.3447 73.7725ZM78.5909 69.6611L77.5795 74.7192H78.6215L79.6317 69.6611H78.5909ZM75.8386 71.2213H75.0136L75.325 69.6611H74.2837L73.2721 74.7192H75.3066C76.5061 74.7192 77.4027 73.8716 77.4027 72.7226C77.4027 71.8638 76.782 71.2213 75.8386 71.2213ZM70.6623 73.7943H69.6444L69.8965 72.5366H70.9086C71.2418 72.5366 71.4349 72.7474 71.4349 73.0402C71.4349 73.4625 71.0974 73.7943 70.6623 73.7943ZM71.0207 71.7071H70.0642L70.2998 70.527H71.2418C71.5504 70.527 71.7317 70.716 71.7368 70.9961C71.7368 71.4005 71.4217 71.7071 71.0207 71.7071ZM71.9966 72.0719C72.4688 71.7983 72.8006 71.3296 72.8006 70.7876C72.8006 70.1571 72.2823 69.6611 71.5098 69.6611H69.4588L68.4477 74.7192H70.6149C71.5906 74.7192 72.4777 74.0082 72.4777 73.0196C72.4777 72.615 72.3145 72.2654 71.9966 72.0719ZM64.9255 73.8441C64.0915 73.8441 63.542 73.3004 63.542 72.5128C63.542 71.4965 64.3723 70.5349 65.4952 70.5349C66.3216 70.5349 66.873 71.067 66.873 71.857C66.873 72.8837 66.0569 73.8441 64.9255 73.8441ZM64.7903 74.8275C66.5338 74.8275 67.9278 73.5174 67.9278 71.7811C67.9278 70.5035 67.0012 69.5527 65.6331 69.5527C63.8898 69.5527 62.4864 70.8628 62.4864 72.5931C62.4864 73.8709 63.4175 74.8275 64.7903 74.8275ZM60.0388 72.1752H59.2092L59.525 70.6005H60.3774C60.7712 70.6005 60.997 70.8244 60.997 71.1753C60.997 71.7095 60.5723 72.1752 60.0388 72.1752ZM60.5507 69.6611H58.6707L57.6596 74.7192H58.7013L59.0221 73.1147H59.9607C61.1108 73.1147 62.0438 72.2398 62.0438 71.1225C62.0438 70.2954 61.4443 69.6611 60.5507 69.6611ZM57.7434 69.6618H54.8889L53.8775 74.7192H54.9195L55.7467 70.5917H57.5563L57.7434 69.6618ZM52.7788 69.6611L49.7998 72.7031L50.4099 69.6611H49.368L48.3566 74.7192H49.0807L52.1009 71.6393L51.4826 74.7192H52.5237L53.5344 69.6611H52.7788ZM45.0887 69.6611H44.0466L43.2202 73.7804H41.4476L42.2734 69.6611H41.232L40.2202 74.7176H43.5948L43.4144 75.6186H44.374L44.7408 73.7804H44.2647L45.0887 69.6611ZM39.8714 70.5863L40.0577 69.6611H37.0399L36.0287 74.7192H39.1254L39.3118 73.7872H37.2545L37.4905 72.6087H39.2823L39.4643 71.7064H37.6728L37.8963 70.5863H39.8714ZM33.7535 72.1752H32.9228L33.2393 70.6005H34.0914C34.4855 70.6005 34.7107 70.8244 34.7107 71.1753C34.7107 71.7095 34.2869 72.1752 33.7535 72.1752ZM34.2641 69.6611H32.3843L31.3729 74.7192H32.415L32.7365 73.1147H33.6751C34.8251 73.1147 35.7585 72.2398 35.7585 71.1225C35.7585 70.2954 35.1583 69.6611 34.2641 69.6611ZM27.8477 73.8441C27.0145 73.8441 26.4643 73.3004 26.4643 72.5128C26.4643 71.4965 27.2945 70.5349 28.4176 70.5349C29.2454 70.5349 29.7953 71.067 29.7953 71.857C29.7953 72.8837 28.9807 73.8441 27.8477 73.8441ZM27.7127 74.8275C29.457 74.8275 30.8509 73.5174 30.8509 71.7811C30.8509 70.5035 29.9243 69.5527 28.5562 69.5527C26.8121 69.5527 25.409 70.8628 25.409 72.5931C25.409 73.8709 26.3399 74.8275 27.7127 74.8275ZM22.628 73.7943H21.6108L21.8628 72.5366H22.8743C23.2074 72.5366 23.4013 72.7474 23.4013 73.0402C23.4013 73.4625 23.0637 73.7943 22.628 73.7943ZM22.9864 71.7071H22.0292L22.2655 70.527H23.2074C23.5157 70.527 23.6981 70.716 23.7031 70.9961C23.7031 71.4005 23.3874 71.7071 22.9864 71.7071ZM23.9628 72.0719C24.435 71.7983 24.7668 71.3296 24.7668 70.7876C24.7668 70.1571 24.2479 69.6611 23.4746 69.6611H21.4252L20.413 74.7192H22.5801C23.5553 74.7192 24.4441 74.0082 24.4441 73.0196C24.4441 72.615 24.2809 72.2654 23.9628 72.0719ZM17.267 70.5924H18.6358L17.9957 73.7804H16.1013C16.4906 73.3406 16.7659 72.5128 17.267 70.5924ZM19.8642 69.6611H16.5179C15.6231 72.8329 15.4242 73.4458 14.9199 73.7804H14.5229L14.1555 75.6186H15.1159L15.2952 74.7176H18.3817L18.2025 75.6186H19.1629L19.5286 73.7804H19.0402L19.8642 69.6611Z" fill="white"/>
</svg>
