<svg width="11" height="15" viewBox="0 0 11 15" fill="none" xmlns="http://www.w3.org/2000/svg">
<path d="M5.5 0C2.48387 0 0 2.55187 0 5.78838C0 8.15353 2.89785 12.3237 4.6129 14.5643C4.84946 14.8133 5.14516 15 5.5 15C5.85484 15 6.15054 14.8133 6.3871 14.5643C8.10215 12.3237 11 8.21577 11 5.78838C10.9409 2.55187 8.51613 0 5.5 0ZM5.5 7.3444C4.25806 7.3444 3.25269 6.28631 3.25269 4.97925C3.25269 3.6722 4.25806 2.61411 5.5 2.61411C6.74194 2.61411 7.74731 3.6722 7.74731 4.97925C7.74731 6.28631 6.74194 7.3444 5.5 7.3444Z" fill="#60BCEA"/>
</svg>
