<svg width="22" height="22" viewBox="0 0 22 22" fill="none" xmlns="http://www.w3.org/2000/svg">
<path d="M1.375 10.3168V3.88867C1.375 2.11763 2.81587 0.676758 4.58691 0.676758H17.499C19.2701 0.676758 20.7109 2.11763 20.7109 3.88867V10.379C21.4934 10.9719 22 11.9107 22 12.9658V21.3232H18.1328V18.7881H3.86719V21.3232H0V12.9658C0 11.8727 0.544027 10.9048 1.375 10.3168ZM20.7109 16.167H1.28906V17.499H20.7109V16.167ZM11.6875 9.72168H18.1328V9.39941C18.1328 8.68863 17.5545 8.11035 16.8438 8.11035H12.9766C12.2658 8.11035 11.6875 8.68863 11.6875 9.39941V9.72168ZM3.95312 9.72168H10.3984V9.39941C10.3984 8.68863 9.82016 8.11035 9.10938 8.11035H5.24219C4.5314 8.11035 3.95312 8.68863 3.95312 9.39941V9.72168ZM19.4219 3.88867C19.4219 2.82842 18.5593 1.96582 17.499 1.96582H4.58691C3.52666 1.96582 2.66406 2.82842 2.66406 3.88867V9.39941C2.66406 7.97784 3.82061 6.82129 5.24219 6.82129H9.10938C9.87886 6.82129 10.5702 7.16057 11.043 7.69686C11.5158 7.16057 12.2071 6.82129 12.9766 6.82129H16.8438C18.2653 6.82129 19.4219 7.97784 19.4219 9.39941V3.88867ZM18.7559 11.0107H3.24414C2.1661 11.0107 1.28906 11.8878 1.28906 12.9658V14.8779H20.7109V12.9658C20.7109 11.8878 19.8339 11.0107 18.7559 11.0107ZM19.4219 20.0342H20.7109V18.7881H19.4219V20.0342ZM1.28906 20.0342H2.57812V18.7881H1.28906V20.0342Z" fill="#314671"/>
</svg>
