<svg width="20" height="20" viewBox="0 0 20 20" fill="none" xmlns="http://www.w3.org/2000/svg">
<path d="M7.97248 8.8831L4.98624 5.89686L5 7.5C5 7.845 4.72 8.125 4.375 8.125C4.03 8.125 3.75 7.845 3.75 7.5V4.375C3.75 4.19 3.82624 4.04065 3.94748 3.93748C4.06059 3.82186 4.2181 3.75 4.39248 3.75H7.5C7.845 3.75 8.125 4.03 8.125 4.375C8.125 4.72 7.845 5 7.5 5H5.85686L8.85624 7.99938L7.97248 8.8831ZM7.5 15C7.845 15 8.125 15.28 8.125 15.625C8.125 15.97 7.845 16.25 7.5 16.25H4.39252C4.21814 16.25 4.06062 16.1775 3.94752 16.0625C3.82627 15.9594 3.75003 15.81 3.75003 15.625V12.5C3.75003 12.155 4.03003 11.875 4.37503 11.875C4.72003 11.875 5 12.155 5 12.5L4.98624 14.1038L7.97248 11.1175L8.85624 12.0013L5.85748 15H7.5ZM15.625 8.125C15.28 8.125 15 7.845 15 7.5L15.0138 5.89624L12.0275 8.88252L11.1438 7.99876L14.1431 5H12.5C12.155 5 11.875 4.72 11.875 4.375C11.875 4.03 12.155 3.75 12.5 3.75H15.6075C15.7825 3.75 15.9394 3.82252 16.0525 3.93814C16.1738 4.04065 16.25 4.19 16.25 4.375V7.5C16.25 7.845 15.97 8.125 15.625 8.125ZM15.6075 16.25H12.5C12.155 16.25 11.875 15.97 11.875 15.625C11.875 15.28 12.155 15 12.5 15H14.1425L11.1431 12.0006L12.0269 11.1169L15.0131 14.1031L15 12.5C15 12.155 15.28 11.875 15.625 11.875C15.97 11.875 16.25 12.155 16.25 12.5V15.625C16.25 15.81 16.1731 15.9594 16.0525 16.0625C15.9394 16.1775 15.7819 16.25 15.6075 16.25ZM17.5 20H2.5C1.11938 20 0 18.8806 0 17.5V2.5C0 1.11938 1.11938 -1.90735e-06 2.5 -1.90735e-06H17.5C18.8806 -1.90735e-06 20 1.11938 20 2.5V17.5C20 18.8806 18.8806 20 17.5 20ZM18.75 2.5C18.75 1.80938 18.1906 1.25 17.5 1.25H2.5C1.80938 1.25 1.25 1.80938 1.25 2.5V17.5C1.25 18.19 1.80938 18.75 2.5 18.75H17.5C18.1906 18.75 18.75 18.19 18.75 17.5V2.5Z" fill="#314671"/>
</svg>
