<svg width="174" height="83" viewBox="0 0 174 83" fill="none" xmlns="http://www.w3.org/2000/svg">
<path d="M165.921 39.8406C170.294 39.8406 173.841 36.294 173.841 31.9204C173.841 27.5466 170.294 24 165.921 24C161.546 24 158 27.5466 158 31.9204C158 36.294 161.546 39.8406 165.921 39.8406Z" fill="#6F8FAC"/>
<path d="M15.3565 35.6376L16.3475 30.6793L7.00914 30.6619C32.1843 14.8639 62.3506 6.41541 87.7881 6.41541C113.202 6.41541 136.523 14.0464 155.037 27.4008C155.896 25.9278 157.076 24.6642 158.479 23.7052C139.466 8.59498 116.3 0 89.044 0C61.7252 0 27.4125 9.98555 1.14217 29.9264L0 35.6376H15.3565Z" fill="#6F8FAC"/>
<path d="M140.194 35.638H137.439C134.632 35.638 131.959 35.6209 129.767 37.608C126.74 40.3507 125.53 44.2523 125.53 48.2429C125.53 50.0177 125.858 51.9792 126.936 53.2856C128.405 55.0704 130.687 55.4103 132.879 55.4103H147.8L146.808 60.3742H132.728C129.265 60.3742 125.501 60.3077 122.663 58.056C119.812 55.7933 118.648 52.0081 118.648 48.0562C118.648 42.5674 120.723 37.1127 125.105 33.6388C128.427 31.0035 132.412 30.6799 136.474 30.6799H147.129L144.844 42.1088H138.9L140.194 35.638ZM95.5847 55.4103H100.582C102.553 55.4103 104.876 55.4537 106.458 54.5069C107.421 53.9309 108.15 52.7934 108.319 51.2492C108.59 48.7772 106.748 47.5544 104.005 47.5544H97.1559L95.5847 55.4103ZM111.003 44.7401C113.779 45.4736 115.481 47.8395 115.326 50.7943C114.925 58.4352 108.832 60.3742 102.29 60.3742H88.0147L92.9599 35.638H87.3422L88.3336 30.6799H105.672C108.365 30.6799 111.86 30.7636 113.993 32.5532C115.571 33.8794 116.286 35.7122 116.154 37.6968C115.967 40.4777 114.347 43.2203 111.003 44.4655V44.7401ZM98.2439 42.1088H102.134C103.519 42.1088 105.268 42.1143 106.696 41.6486C108.059 41.2039 109.169 40.137 109.354 38.416C109.433 37.685 109.333 36.926 108.759 36.4064C107.917 35.6451 106.221 35.638 105.137 35.638H99.5387L98.2439 42.1088ZM66.5121 30.6799L62.9453 48.5156H63.3287L78.9521 30.6799H85.2534L79.3145 60.3742H72.7366L76.3324 42.3913H75.9529L60.2963 60.3742H53.9954L58.9418 35.638H53.3243L54.3164 30.6799H66.5121ZM28.7941 35.638H23.1773L24.1938 30.6788L50.6294 30.6799L45.684 55.4103H49.2952L47.38 65.3367H41.4361L42.3573 60.3749L22.4076 60.3681L21.4842 65.3367H15.5396L17.4558 55.4103H18.9676C21.5591 54.5992 23.2849 52.3904 24.5593 48.5156L28.7941 35.638ZM43.0326 35.638H35.0266L31.3515 47.3462C30.4123 50.3359 29.1839 53.5133 27.1808 55.4103H39.1043L43.0326 35.638Z" fill="#1B3281"/>
<path d="M54.4588 21.229C65.0708 18.889 75.1913 17.7792 84.7364 17.7907C100.771 17.8099 115.175 20.9923 127.545 26.8119L126.98 28.0192C114.783 22.2807 100.569 19.1418 84.7364 19.1231C69.7175 19.1047 53.2368 21.8957 35.6327 27.9377L35.4153 27.3058L35.165 26.6861C56.5385 17.9886 74.8595 13.8364 92.8489 13.9198C107.757 13.9893 122.419 16.9675 138.382 22.6795C122.147 14.81 105.292 10.8389 87.6149 10.8044C66.4492 10.763 44.0886 16.362 20.1888 27.6644L19.6201 26.4576C43.698 15.0716 66.2468 9.43056 87.6149 9.47226C109.004 9.51361 129.196 15.2473 148.539 26.6084L148.201 27.1832L147.948 27.7998C128.114 19.6197 110.644 15.3346 92.8439 15.2516C80.5192 15.1949 68.0226 17.1539 54.4588 21.229Z" fill="#6F8FAC"/>
<path d="M15.1034 78.0642L14.1558 83H146.55L147.497 78.0642H15.1034Z" fill="#6F8FAC"/>
<path d="M53.4081 64.2983H53.4105L53.4515 64.0813H147.475L147.275 65.1202L147.232 65.3372H53.2085L53.4081 64.2983Z" fill="#47A4F9"/>
<path d="M145.395 70.9357L145.742 72.8615H144.32L145.395 70.9357ZM146.063 74.7187H147.154L146.111 69.6606H145.129L142.125 74.7187H143.276L143.839 73.7287H145.892L146.063 74.7187ZM143.2 69.6606H139.314L139.133 70.5712H140.573L139.745 74.7187H140.787L141.615 70.5712H143.019L143.2 69.6606ZM136.547 72.1748H135.718L136.033 70.6001H136.886C137.279 70.6001 137.505 70.8239 137.505 71.1749C137.505 71.709 137.081 72.1748 136.547 72.1748ZM137.059 69.6606H135.18L134.168 74.7187H135.21L135.531 73.1143H136.469C137.619 73.1143 138.552 72.2394 138.552 71.1221C138.552 70.295 137.952 69.6606 137.059 69.6606ZM130.643 73.8437C129.809 73.8437 129.259 73.2999 129.259 72.5123C129.259 71.496 130.089 70.5344 131.212 70.5344C132.039 70.5344 132.59 71.0665 132.59 71.8566C132.59 72.8833 131.774 73.8437 130.643 73.8437ZM130.509 74.827C132.252 74.827 133.645 73.5169 133.645 71.7806C133.645 70.5031 132.719 69.5523 131.351 69.5523C129.606 69.5523 128.204 70.8624 128.204 72.5926C128.204 73.8705 129.134 74.827 130.509 74.827ZM123.773 69.6606L122.761 74.7187H123.803L124.629 70.6001H126.453L125.627 74.7187H126.671L127.683 69.6606H123.773ZM119.371 74.8182C120.643 74.8182 121.71 74.1246 122.184 72.76H121.126C120.821 73.4168 120.217 73.8238 119.505 73.8238C118.723 73.8238 118.237 73.3292 118.237 72.5797C118.237 71.5267 119.102 70.5548 120.159 70.5548C120.824 70.5548 121.253 70.9333 121.353 71.5458H122.395C122.357 70.3927 121.478 69.5605 120.277 69.5605C118.563 69.5605 117.182 70.9309 117.182 72.6517C117.182 73.8897 118.063 74.8182 119.371 74.8182ZM111.671 73.7939H110.653L110.905 72.5362H111.916C112.25 72.5362 112.442 72.7469 112.442 73.0397C112.442 73.4621 112.105 73.7939 111.671 73.7939ZM112.028 71.7066H111.072L111.309 70.5266H112.25C112.558 70.5266 112.739 70.7156 112.745 70.9956C112.745 71.4001 112.429 71.7066 112.028 71.7066ZM113.005 72.0715C113.477 71.7979 113.808 71.3292 113.808 70.7872C113.808 70.1567 113.291 69.6606 112.518 69.6606H110.468L109.456 74.7187H111.622C112.597 74.7187 113.486 74.0078 113.486 73.0192C113.486 72.6146 113.323 72.265 113.005 72.0715ZM105.933 73.8437C105.099 73.8437 104.55 73.2999 104.55 72.5123C104.55 71.496 105.38 70.5344 106.502 70.5344C107.33 70.5344 107.88 71.0665 107.88 71.8566C107.88 72.8833 107.065 73.8437 105.933 73.8437ZM105.797 74.827C107.542 74.827 108.935 73.5169 108.935 71.7806C108.935 70.5031 108.009 69.5523 106.641 69.5523C104.897 69.5523 103.494 70.8624 103.494 72.5926C103.494 73.8705 104.424 74.827 105.797 74.827ZM100.26 70.5919H101.628L100.99 73.7799H99.0934C99.4839 73.3402 99.7584 72.5123 100.26 70.5919ZM102.857 69.6606H99.5114C98.6155 72.8324 98.4169 73.4454 97.912 73.7799H97.5152L97.1489 75.6181H98.1079L98.2875 74.7171H101.374L101.195 75.6181H102.155L102.521 73.7799H102.033L102.857 69.6606ZM96.6137 69.6606L93.634 72.7027L94.2452 69.6606H93.2028L92.1919 74.7187H92.9149L95.9358 71.6389L95.3161 74.7187H96.3579L97.37 69.6606H96.6137ZM89.5831 73.7939H88.5649L88.8163 72.5362H89.8284C90.1619 72.5362 90.3547 72.7469 90.3547 73.0397C90.3547 73.4621 90.0172 73.7939 89.5831 73.7939ZM89.9398 71.7066H88.9833L89.2197 70.5266H90.1619C90.4702 70.5266 90.6525 70.7156 90.6562 70.9956C90.6562 71.4001 90.3411 71.7066 89.9398 71.7066ZM90.9175 72.0715C91.3893 71.7979 91.7204 71.3292 91.7204 70.7872C91.7204 70.1567 91.2022 69.6606 90.4287 69.6606H88.3789L87.3675 74.7187H89.5347C90.5104 74.7187 91.3971 74.0078 91.3971 73.0192C91.3971 72.6146 91.2343 72.265 90.9175 72.0715ZM84.7379 69.6606H83.5173L82.269 71.2464L81.6532 69.6606H80.5303L81.5326 72.064L79.4147 74.7187H80.6571L82.0477 72.9552L82.7248 74.7187H83.8541L82.7861 72.1035L84.7379 69.6606ZM75.3447 73.7721H74.5036L74.8239 72.1675H75.649C76.0727 72.1675 76.3422 72.4162 76.3422 72.8035C76.3422 73.3241 75.9031 73.7721 75.3447 73.7721ZM78.5909 69.6606L77.5795 74.7187H78.6215L79.6317 69.6606H78.5909ZM75.8386 71.2208H75.0136L75.325 69.6606H74.2837L73.2721 74.7187H75.3066C76.5061 74.7187 77.4027 73.8712 77.4027 72.7222C77.4027 71.8634 76.782 71.2208 75.8386 71.2208ZM70.6623 73.7939H69.6444L69.8965 72.5362H70.9086C71.2418 72.5362 71.4349 72.7469 71.4349 73.0397C71.4349 73.4621 71.0974 73.7939 70.6623 73.7939ZM71.0207 71.7066H70.0642L70.2998 70.5266H71.2418C71.5504 70.5266 71.7317 70.7156 71.7368 70.9956C71.7368 71.4001 71.4217 71.7066 71.0207 71.7066ZM71.9966 72.0715C72.4688 71.7979 72.8006 71.3292 72.8006 70.7872C72.8006 70.1567 72.2823 69.6606 71.5098 69.6606H69.4588L68.4477 74.7187H70.6149C71.5906 74.7187 72.4777 74.0078 72.4777 73.0192C72.4777 72.6146 72.3145 72.265 71.9966 72.0715ZM64.9255 73.8437C64.0915 73.8437 63.542 73.2999 63.542 72.5123C63.542 71.496 64.3723 70.5344 65.4952 70.5344C66.3216 70.5344 66.873 71.0665 66.873 71.8566C66.873 72.8833 66.0569 73.8437 64.9255 73.8437ZM64.7903 74.827C66.5338 74.827 67.9278 73.5169 67.9278 71.7806C67.9278 70.5031 67.0012 69.5523 65.6331 69.5523C63.8898 69.5523 62.4864 70.8624 62.4864 72.5926C62.4864 73.8705 63.4175 74.827 64.7903 74.827ZM60.0388 72.1748H59.2092L59.525 70.6001H60.3774C60.7712 70.6001 60.997 70.8239 60.997 71.1749C60.997 71.709 60.5723 72.1748 60.0388 72.1748ZM60.5507 69.6606H58.6707L57.6596 74.7187H58.7013L59.0221 73.1143H59.9607C61.1108 73.1143 62.0438 72.2394 62.0438 71.1221C62.0438 70.295 61.4443 69.6606 60.5507 69.6606ZM57.7434 69.6613H54.8889L53.8775 74.7187H54.9195L55.7467 70.5912H57.5563L57.7434 69.6613ZM52.7788 69.6606L49.7998 72.7027L50.4099 69.6606H49.368L48.3566 74.7187H49.0807L52.1009 71.6389L51.4826 74.7187H52.5237L53.5344 69.6606H52.7788ZM45.0887 69.6606H44.0466L43.2202 73.7799H41.4476L42.2734 69.6606H41.232L40.2202 74.7171H43.5948L43.4144 75.6181H44.374L44.7408 73.7799H44.2647L45.0887 69.6606ZM39.8714 70.5858L40.0577 69.6606H37.0399L36.0287 74.7187H39.1254L39.3118 73.7867H37.2545L37.4905 72.6083H39.2823L39.4643 71.7059H37.6728L37.8963 70.5858H39.8714ZM33.7535 72.1748H32.9228L33.2393 70.6001H34.0914C34.4855 70.6001 34.7107 70.8239 34.7107 71.1749C34.7107 71.709 34.2869 72.1748 33.7535 72.1748ZM34.2641 69.6606H32.3843L31.3729 74.7187H32.415L32.7365 73.1143H33.6751C34.8251 73.1143 35.7585 72.2394 35.7585 71.1221C35.7585 70.295 35.1583 69.6606 34.2641 69.6606ZM27.8477 73.8437C27.0145 73.8437 26.4643 73.2999 26.4643 72.5123C26.4643 71.496 27.2945 70.5344 28.4176 70.5344C29.2454 70.5344 29.7953 71.0665 29.7953 71.8566C29.7953 72.8833 28.9807 73.8437 27.8477 73.8437ZM27.7127 74.827C29.457 74.827 30.8509 73.5169 30.8509 71.7806C30.8509 70.5031 29.9243 69.5523 28.5562 69.5523C26.8121 69.5523 25.409 70.8624 25.409 72.5926C25.409 73.8705 26.3399 74.827 27.7127 74.827ZM22.628 73.7939H21.6108L21.8628 72.5362H22.8743C23.2074 72.5362 23.4013 72.7469 23.4013 73.0397C23.4013 73.4621 23.0637 73.7939 22.628 73.7939ZM22.9864 71.7066H22.0292L22.2655 70.5266H23.2074C23.5157 70.5266 23.6981 70.7156 23.7031 70.9956C23.7031 71.4001 23.3874 71.7066 22.9864 71.7066ZM23.9628 72.0715C24.435 71.7979 24.7668 71.3292 24.7668 70.7872C24.7668 70.1567 24.2479 69.6606 23.4746 69.6606H21.4252L20.413 74.7187H22.5801C23.5553 74.7187 24.4441 74.0078 24.4441 73.0192C24.4441 72.6146 24.2809 72.265 23.9628 72.0715ZM17.267 70.5919H18.6358L17.9957 73.7799H16.1013C16.4906 73.3402 16.7659 72.5123 17.267 70.5919ZM19.8642 69.6606H16.5179C15.6231 72.8324 15.4242 73.4454 14.9199 73.7799H14.5229L14.1555 75.6181H15.1159L15.2952 74.7171H18.3817L18.2025 75.6181H19.1629L19.5286 73.7799H19.0402L19.8642 69.6606Z" fill="#171515"/>
</svg>
