<svg width="84" height="60" viewBox="0 0 84 60" fill="none" xmlns="http://www.w3.org/2000/svg">
<path d="M83.2601 4.21985L57.7846 29.5312L83.2601 54.8426C83.7206 53.8801 84 52.816 84 51.6797V7.38281C84 6.24635 83.7206 5.18241 83.2601 4.21985ZM76.6172 0H7.38281C6.24635 0 5.18241 0.279399 4.21985 0.739922L36.7802 33.1362C39.6592 36.0152 44.3408 36.0152 47.2198 33.1362L79.7801 0.739922C78.8176 0.279399 77.7536 0 76.6172 0ZM0.739922 4.21985C0.279399 5.18241 0 6.24635 0 7.38281V51.6797C0 52.8161 0.279399 53.8803 0.739922 54.8426L26.2154 29.5312L0.739922 4.21985Z" fill="#F37021"/>
<path d="M54.3055 33.0112L50.7006 36.6161C45.9036 41.4131 38.098 41.4131 33.3009 36.6161L29.6962 33.0112L4.2207 58.3226C5.18326 58.7831 6.2472 59.0625 7.38366 59.0625H76.618C77.7545 59.0625 78.8184 58.7831 79.781 58.3226L54.3055 33.0112Z" fill="#F37021"/>
</svg>
