<svg width="8" height="11" viewBox="0 0 8 11" fill="none" xmlns="http://www.w3.org/2000/svg">
<path d="M4 0C1.80645 0 0 1.87137 0 4.24481C0 5.97925 2.10753 9.03734 3.35484 10.6805C3.52688 10.8631 3.74194 11 4 11C4.25806 11 4.47312 10.8631 4.64516 10.6805C5.89247 9.03734 8 6.0249 8 4.24481C7.95699 1.87137 6.19355 0 4 0ZM4 5.38589C3.09677 5.38589 2.36559 4.60996 2.36559 3.65145C2.36559 2.69295 3.09677 1.91701 4 1.91701C4.90323 1.91701 5.63441 2.69295 5.63441 3.65145C5.63441 4.60996 4.90323 5.38589 4 5.38589Z" fill="#60BCEA"/>
</svg>
