<svg width="11" height="11" viewBox="0 0 11 11" fill="none" xmlns="http://www.w3.org/2000/svg">
<path fill-rule="evenodd" clip-rule="evenodd" d="M10.7986 9.67563C10.7256 9.74845 10.6375 9.84156 10.5441 9.94004C10.3111 10.1874 10.0199 10.4949 9.83745 10.6196C8.87736 11.2757 7.59291 10.9617 6.68435 10.5832C5.48581 10.0838 4.18094 9.16323 3.0093 7.99137C1.83656 6.81943 0.916169 5.51408 0.416787 4.31616C0.0386797 3.40736 -0.275902 2.12259 0.380266 1.16223C0.504869 0.97961 0.813049 0.688902 1.06006 0.455387C1.15889 0.362272 1.25127 0.274293 1.32431 0.201482C1.45399 0.0724407 1.62949 0 1.81242 0C1.99536 0 2.17086 0.0724407 2.30054 0.201482L4.06707 1.9676C4.19604 2.09728 4.26843 2.27274 4.26843 2.45563C4.26843 2.63853 4.19604 2.81398 4.06707 2.94366L3.58585 3.42395C3.42513 3.5835 3.32023 3.79068 3.28675 4.01465C3.25327 4.23863 3.293 4.46743 3.40004 4.667C4.06193 5.91634 5.08378 6.93807 6.33316 7.5998C6.53268 7.7068 6.76143 7.74648 6.98533 7.71295C7.20923 7.67941 7.4163 7.57444 7.57572 7.41368L8.05577 6.93337C8.18544 6.80433 8.36094 6.73188 8.54388 6.73188C8.72682 6.73188 8.90231 6.80433 9.03199 6.93337L10.7986 8.69978C10.9276 8.82942 11 9.00485 11 9.18771C11 9.37057 10.9276 9.546 10.7986 9.67563Z" fill="#60BCEA"/>
</svg>
