<svg width="63" height="54" viewBox="0 0 63 54" fill="none" xmlns="http://www.w3.org/2000/svg">
<path d="M62.6 6.8C57 7.86666 52.6 10.4 49.4 14.4C46.3333 18.4 44.6667 23.1333 44.4 28.6C45.2 28.3333 46 28.1333 46.8 28C47.6 27.7333 48.4667 27.6 49.4 27.6C53.2667 27.6 56.2667 28.8 58.4 31.2C60.5333 33.6 61.6 36.5333 61.6 40C61.6 44 60.4 47.2667 58 49.8C55.7333 52.2 52.6667 53.4 48.8 53.4C44.9333 53.4 41.6667 52 39 49.2C36.4667 46.4 35.2 42.2667 35.2 36.8C35.2 29.0667 36.3333 22.6 38.6 17.4C40.8667 12.2 44.0667 8.2 48.2 5.39999C52.3333 2.46666 57.1333 0.666656 62.6 -9.53674e-06V6.8ZM27.6 6.8C22.1333 7.86666 17.8 10.4 14.6 14.4C11.5333 18.4 9.86667 23.1333 9.6 28.6C10.2667 28.3333 11 28.1333 11.8 28C12.7333 27.7333 13.6667 27.6 14.6 27.6C18.3333 27.6 21.2667 28.8 23.4 31.2C25.5333 33.6 26.6 36.5333 26.6 40C26.6 44 25.4 47.2667 23 49.8C20.7333 52.2 17.6667 53.4 13.8 53.4C10.0667 53.4 6.86667 52 4.2 49.2C1.53333 46.4 0.200001 42.2667 0.200001 36.8C0.200001 29.0667 1.33333 22.6 3.6 17.4C5.86667 12.2 9.06667 8.2 13.2 5.39999C17.3333 2.46666 22.1333 0.666656 27.6 -9.53674e-06V6.8Z" fill="#1B3281"/>
</svg>
