<svg width="17" height="17" viewBox="0 0 17 17" fill="none" xmlns="http://www.w3.org/2000/svg">
<path d="M16.9557 6.189C16.9013 6.02053 16.7986 5.8718 16.6603 5.76132C16.5219 5.65085 16.3542 5.58353 16.1779 5.56775L11.2712 5.12219L9.33097 0.580879C9.18786 0.248076 8.86207 0.0327148 8.50008 0.0327148C8.13809 0.0327148 7.81226 0.248109 7.66921 0.581709L5.72897 5.12222L0.821525 5.56775C0.645416 5.58388 0.477915 5.65135 0.339788 5.76178C0.201661 5.87221 0.0989835 6.02076 0.0444856 6.189C-0.0674449 6.53325 0.035919 6.91082 0.30869 7.14882L4.01757 10.4015L2.9239 15.219C2.84388 15.5733 2.98134 15.9394 3.27526 16.1519C3.43322 16.266 3.61806 16.3241 3.80444 16.3241C3.96514 16.3241 4.12452 16.2808 4.26763 16.1952L8.50008 13.6656L12.731 16.1952C13.0406 16.3815 13.4309 16.3645 13.7241 16.1519C13.8677 16.048 13.9775 15.9041 14.04 15.7383C14.1025 15.5724 14.1148 15.3919 14.0755 15.219L12.9818 10.4015L16.6907 7.14949C16.8241 7.03296 16.9204 6.8798 16.9675 6.70904C17.0146 6.53828 17.0105 6.35744 16.9557 6.189Z" fill="#F37021"/>
</svg>
