<svg width="30" height="30" viewBox="0 0 30 30" fill="none" xmlns="http://www.w3.org/2000/svg">
<circle cx="15" cy="15" r="15" fill="#E40571"/>
<path d="M20.7916 19.7858L18.4849 17.4797C19.1883 16.5629 19.5689 15.4394 19.5674 14.2839C19.5674 12.8724 19.0176 11.5458 18.0193 10.5478C17.5297 10.0555 16.9473 9.6653 16.3059 9.39963C15.6644 9.13396 14.9766 8.99814 14.2823 9.00002C12.8707 9.00002 11.5438 9.54971 10.5452 10.5478C8.48494 12.6078 8.48494 15.96 10.5452 18.0201C11.0348 18.5123 11.6172 18.9026 12.2586 19.1682C12.9001 19.4339 13.5879 19.5697 14.2823 19.5678C15.4537 19.5678 16.5637 19.1842 17.4791 18.4852L19.7858 20.7916C19.9245 20.9303 20.1066 21 20.2887 21C20.4708 21 20.6529 20.9303 20.7916 20.7916C20.8576 20.7256 20.9101 20.6472 20.9458 20.5609C20.9816 20.4746 21 20.3821 21 20.2887C21 20.1953 20.9816 20.1028 20.9458 20.0165C20.9101 19.9302 20.8576 19.8518 20.7916 19.7858ZM11.5513 17.0146C10.0451 15.5088 10.0455 13.059 11.5513 11.5533C11.9092 11.1936 12.3349 10.9086 12.8037 10.7145C13.2725 10.5204 13.7752 10.4212 14.2826 10.4226C14.79 10.4212 15.2926 10.5204 15.7614 10.7145C16.2301 10.9086 16.6557 11.1937 17.0136 11.5533C17.3734 11.911 17.6586 12.3366 17.8528 12.8053C18.047 13.274 18.1463 13.7766 18.1449 14.2839C18.1449 15.3154 17.743 16.285 17.0136 17.0146C16.2842 17.7442 15.3143 18.1452 14.2823 18.1452C13.2509 18.1452 12.2807 17.7435 11.5509 17.0146H11.5513Z" fill="white"/>
</svg>
