<svg width="10" height="12" viewBox="0 0 10 12" fill="none" xmlns="http://www.w3.org/2000/svg">
<path d="M4.92439 5.78042C5.71757 5.78042 6.40443 5.49558 6.96564 4.93363C7.52685 4.37179 7.81133 3.68432 7.81133 2.89013C7.81133 2.09616 7.52685 1.40863 6.96555 0.846579C6.40424 0.28481 5.71748 0 4.92439 0C4.13108 0 3.44439 0.28481 2.8832 0.846673C2.32201 1.40854 2.03742 2.09609 2.03742 2.89013C2.03742 3.68432 2.32199 4.37188 2.8833 4.93374C3.4446 5.49551 4.13137 5.78042 4.92439 5.78042ZM9.97577 9.22734C9.95957 8.99353 9.92684 8.73844 9.87864 8.46912C9.82999 8.19774 9.76737 7.94122 9.69237 7.70675C9.61493 7.46441 9.50958 7.22512 9.37937 6.99576C9.2442 6.75773 9.08546 6.55045 8.90731 6.3799C8.72103 6.20147 8.49297 6.05801 8.22923 5.95334C7.96643 5.84927 7.67516 5.79654 7.36361 5.79654C7.24125 5.79654 7.12293 5.84679 6.8944 5.99576C6.73196 6.10166 6.56903 6.20682 6.40562 6.31122C6.24861 6.4114 6.0359 6.50524 5.77317 6.5902C5.51685 6.67324 5.2566 6.71535 4.99972 6.71535C4.74286 6.71535 4.48268 6.67324 4.22608 6.5902C3.96365 6.50531 3.75095 6.41149 3.5941 6.31132C3.4122 6.19495 3.24763 6.08876 3.10487 5.99564C2.87662 5.8467 2.75819 5.79642 2.63585 5.79642C2.32419 5.79642 2.03304 5.84925 1.77031 5.95345C1.50675 6.05791 1.2786 6.20137 1.09214 6.37999C0.9141 6.55064 0.755262 6.7578 0.620279 6.99576C0.490165 7.22509 0.384819 7.46432 0.307261 7.70685C0.232348 7.94131 0.169726 8.19774 0.12108 8.46912C0.0728782 8.73809 0.0401507 8.99325 0.0239508 9.22762C0.00783574 9.46348 -0.000151889 9.69982 2.18684e-06 9.93623C2.18684e-06 10.5626 0.198895 11.0697 0.59111 11.4437C0.978479 11.8128 1.49102 12 2.11432 12H7.88568C8.50898 12 9.02134 11.8129 9.4088 11.4437C9.80111 11.07 10 10.5628 10 9.93613C9.99991 9.69435 9.99178 9.45586 9.97577 9.22734Z" fill="#60BCEA"/>
</svg>
