<svg width="468" height="439" viewBox="0 0 468 439" fill="none" xmlns="http://www.w3.org/2000/svg">
<path d="M371.862 15.2339C381.196 6.8216 395.586 7.56883 403.999 16.9025C412.412 26.2366 411.665 40.6272 402.332 49.0395C392.996 57.4538 378.606 56.7063 370.193 47.3722C361.781 38.0385 362.527 23.6483 371.862 15.2339Z" fill="white"/>
<path d="M40.4891 326.161L52.8831 335.448L32.003 354.34C120.807 339.483 205.709 297.819 262.683 246.467C319.605 195.162 356.18 130.71 370.244 62.9324C375.19 64.552 380.426 65.0462 385.537 64.3962C373.958 137.179 339.708 203.513 278.66 258.537C217.472 313.687 120.129 360.223 20.3715 367.858L6.09407 357.162L40.4891 326.161Z" fill="white"/>
<path d="M157.429 280.554C186.08 264.78 211.008 247.078 232.258 227.875C267.956 195.617 293.265 159.139 308.408 120.5L304.572 118.772C289.639 156.875 264.662 192.867 229.413 224.718C195.977 254.934 153.282 281.43 101.14 302.479L102.005 304.413L102.771 306.384C168.986 284.054 218.689 257.087 258.607 220.749C291.688 190.635 318.007 154.123 341.389 108.519C322.01 159.781 292.922 203.051 253.595 238.646C206.507 281.265 144.71 312.92 67.3012 334.153L68.611 338.155C146.595 316.762 208.901 284.829 256.44 241.803C304.026 198.734 336.787 144.584 355.636 78.8053L353.656 78.1215L351.775 77.1697C325.038 136.397 295.249 181.648 255.752 217.604C228.403 242.498 196.365 262.961 157.429 280.554Z" fill="white"/>
</svg>
